<?xml version="1.0" encoding="utf-8" standalone="no"?>
<!DOCTYPE svg PUBLIC "-//W3C//DTD SVG 1.1//EN"
  "http://www.w3.org/Graphics/SVG/1.1/DTD/svg11.dtd">
<svg xmlns:xlink="http://www.w3.org/1999/xlink" width="576pt" height="432pt" viewBox="0 0 576 432" xmlns="http://www.w3.org/2000/svg" version="1.1">
 <metadata>
  <rdf:RDF xmlns:dc="http://purl.org/dc/elements/1.1/" xmlns:cc="http://creativecommons.org/ns#" xmlns:rdf="http://www.w3.org/1999/02/22-rdf-syntax-ns#">
   <cc:Work>
    <dc:type rdf:resource="http://purl.org/dc/dcmitype/StillImage"/>
    <dc:date>2025-01-04T00:12:00.209923</dc:date>
    <dc:format>image/svg+xml</dc:format>
    <dc:creator>
     <cc:Agent>
      <dc:title>Matplotlib v3.7.2, https://matplotlib.org/</dc:title>
     </cc:Agent>
    </dc:creator>
   </cc:Work>
  </rdf:RDF>
 </metadata>
 <defs>
  <style type="text/css">*{stroke-linejoin: round; stroke-linecap: butt}</style>
 </defs>
 <g id="figure_1">
  <g id="patch_1">
   <path d="M 0 432 
L 576 432 
L 576 0 
L 0 0 
z
" style="fill: #ffffff"/>
  </g>
  <g id="axes_1">
   <g id="patch_2">
    <path d="M 72 384.48 
L 518.4 384.48 
L 518.4 51.84 
L 72 51.84 
z
" style="fill: #ffffff"/>
   </g>
   <g id="PathCollection_1">
    <defs>
     <path id="mb21e438db3" d="M 0 3 
C 0.795609 3 1.55874 2.683901 2.12132 2.12132 
C 2.683901 1.55874 3 0.795609 3 0 
C 3 -0.795609 2.683901 -1.55874 2.12132 -2.12132 
C 1.55874 -2.683901 0.795609 -3 0 -3 
C -0.795609 -3 -1.55874 -2.683901 -2.12132 -2.12132 
C -2.683901 -1.55874 -3 -0.795609 -3 0 
C -3 0.795609 -2.683901 1.55874 -2.12132 2.12132 
C -1.55874 2.683901 -0.795609 3 0 3 
z
" style="stroke: #1f77b4"/>
    </defs>
    <g clip-path="url(#p4465f0de7d)">
     <use xlink:href="#mb21e438db3" x="92.290909" y="344.309112" style="fill: #1f77b4; stroke: #1f77b4"/>
     <use xlink:href="#mb21e438db3" x="92.832452" y="287.944615" style="fill: #1f77b4; stroke: #1f77b4"/>
     <use xlink:href="#mb21e438db3" x="93.588441" y="350.203439" style="fill: #1f77b4; stroke: #1f77b4"/>
     <use xlink:href="#mb21e438db3" x="94.647098" y="319.258225" style="fill: #1f77b4; stroke: #1f77b4"/>
     <use xlink:href="#mb21e438db3" x="96.127859" y="369.36" style="fill: #1f77b4; stroke: #1f77b4"/>
     <use xlink:href="#mb21e438db3" x="98.199025" y="369.36" style="fill: #1f77b4; stroke: #1f77b4"/>
     <use xlink:href="#mb21e438db3" x="101.094042" y="287.944615" style="fill: #1f77b4; stroke: #1f77b4"/>
     <use xlink:href="#mb21e438db3" x="105.145438" y="344.309112" style="fill: #1f77b4; stroke: #1f77b4"/>
     <use xlink:href="#mb21e438db3" x="110.810605" y="260.806154" style="fill: #1f77b4; stroke: #1f77b4"/>
     <use xlink:href="#mb21e438db3" x="118.735596" y="280.543217" style="fill: #1f77b4; stroke: #1f77b4"/>
     <use xlink:href="#mb21e438db3" x="129.818912" y="276.313846" style="fill: #1f77b4; stroke: #1f77b4"/>
     <use xlink:href="#mb21e438db3" x="145.321438" y="194.003787" style="fill: #1f77b4; stroke: #1f77b4"/>
     <use xlink:href="#mb21e438db3" x="167.003529" y="206.529231" style="fill: #1f77b4; stroke: #1f77b4"/>
     <use xlink:href="#mb21e438db3" x="197.331313" y="206.529231" style="fill: #1f77b4; stroke: #1f77b4"/>
     <use xlink:href="#mb21e438db3" x="239.746778" y="206.529231" style="fill: #1f77b4; stroke: #1f77b4"/>
     <use xlink:href="#mb21e438db3" x="299.073596" y="179.390769" style="fill: #1f77b4; stroke: #1f77b4"/>
     <use xlink:href="#mb21e438db3" x="382.051877" y="152.252308" style="fill: #1f77b4; stroke: #1f77b4"/>
     <use xlink:href="#mb21e438db3" x="498.109091" y="122.306419" style="fill: #1f77b4; stroke: #1f77b4"/>
    </g>
   </g>
   <g id="PathCollection_2">
    <defs>
     <path id="m3541e14250" d="M 0 3 
C 0.795609 3 1.55874 2.683901 2.12132 2.12132 
C 2.683901 1.55874 3 0.795609 3 0 
C 3 -0.795609 2.683901 -1.55874 2.12132 -2.12132 
C 1.55874 -2.683901 0.795609 -3 0 -3 
C -0.795609 -3 -1.55874 -2.683901 -2.12132 -2.12132 
C -2.683901 -1.55874 -3 -0.795609 -3 0 
C -3 0.795609 -2.683901 1.55874 -2.12132 2.12132 
C -1.55874 2.683901 -0.795609 3 0 3 
z
" style="stroke: #ff7f0e"/>
    </defs>
    <g clip-path="url(#p4465f0de7d)">
     <use xlink:href="#m3541e14250" x="92.290909" y="344.309112" style="fill: #ff7f0e; stroke: #ff7f0e"/>
     <use xlink:href="#m3541e14250" x="92.832452" y="322.836923" style="fill: #ff7f0e; stroke: #ff7f0e"/>
     <use xlink:href="#m3541e14250" x="93.588441" y="296.990769" style="fill: #ff7f0e; stroke: #ff7f0e"/>
     <use xlink:href="#m3541e14250" x="94.647098" y="294.207337" style="fill: #ff7f0e; stroke: #ff7f0e"/>
     <use xlink:href="#m3541e14250" x="96.127859" y="206.529231" style="fill: #ff7f0e; stroke: #ff7f0e"/>
     <use xlink:href="#m3541e14250" x="98.199025" y="317.939757" style="fill: #ff7f0e; stroke: #ff7f0e"/>
     <use xlink:href="#m3541e14250" x="101.094042" y="276.313846" style="fill: #ff7f0e; stroke: #ff7f0e"/>
     <use xlink:href="#m3541e14250" x="105.145438" y="369.36" style="fill: #ff7f0e; stroke: #ff7f0e"/>
     <use xlink:href="#m3541e14250" x="110.810605" y="369.36" style="fill: #ff7f0e; stroke: #ff7f0e"/>
     <use xlink:href="#m3541e14250" x="118.735596" y="282.516923" style="fill: #ff7f0e; stroke: #ff7f0e"/>
     <use xlink:href="#m3541e14250" x="129.818912" y="287.944615" style="fill: #ff7f0e; stroke: #ff7f0e"/>
     <use xlink:href="#m3541e14250" x="145.321438" y="294.207337" style="fill: #ff7f0e; stroke: #ff7f0e"/>
     <use xlink:href="#m3541e14250" x="167.003529" y="308.298462" style="fill: #ff7f0e; stroke: #ff7f0e"/>
     <use xlink:href="#m3541e14250" x="197.331313" y="260.806154" style="fill: #ff7f0e; stroke: #ff7f0e"/>
     <use xlink:href="#m3541e14250" x="239.746778" y="253.052308" style="fill: #ff7f0e; stroke: #ff7f0e"/>
     <use xlink:href="#m3541e14250" x="299.073596" y="66.96" style="fill: #ff7f0e; stroke: #ff7f0e"/>
     <use xlink:href="#m3541e14250" x="382.051877" y="136.744615" style="fill: #ff7f0e; stroke: #ff7f0e"/>
     <use xlink:href="#m3541e14250" x="498.109091" y="86.176054" style="fill: #ff7f0e; stroke: #ff7f0e"/>
    </g>
   </g>
   <g id="PathCollection_3">
    <defs>
     <path id="m5ce67edd17" d="M 0 3 
C 0.795609 3 1.55874 2.683901 2.12132 2.12132 
C 2.683901 1.55874 3 0.795609 3 0 
C 3 -0.795609 2.683901 -1.55874 2.12132 -2.12132 
C 1.55874 -2.683901 0.795609 -3 0 -3 
C -0.795609 -3 -1.55874 -2.683901 -2.12132 -2.12132 
C -2.683901 -1.55874 -3 -0.795609 -3 0 
C -3 0.795609 -2.683901 1.55874 -2.12132 2.12132 
C -1.55874 2.683901 -0.795609 3 0 3 
z
" style="stroke: #ff0000"/>
    </defs>
    <g clip-path="url(#p4465f0de7d)">
     <use xlink:href="#m5ce67edd17" x="92.290909" y="344.309112" style="fill: #ff0000; stroke: #ff0000"/>
     <use xlink:href="#m5ce67edd17" x="92.832452" y="305.390769" style="fill: #ff0000; stroke: #ff0000"/>
     <use xlink:href="#m5ce67edd17" x="93.588441" y="323.597104" style="fill: #ff0000; stroke: #ff0000"/>
     <use xlink:href="#m5ce67edd17" x="94.647098" y="306.732781" style="fill: #ff0000; stroke: #ff0000"/>
     <use xlink:href="#m5ce67edd17" x="96.127859" y="287.944615" style="fill: #ff0000; stroke: #ff0000"/>
     <use xlink:href="#m5ce67edd17" x="98.199025" y="343.649879" style="fill: #ff0000; stroke: #ff0000"/>
     <use xlink:href="#m5ce67edd17" x="101.094042" y="282.129231" style="fill: #ff0000; stroke: #ff0000"/>
     <use xlink:href="#m5ce67edd17" x="105.145438" y="356.834556" style="fill: #ff0000; stroke: #ff0000"/>
     <use xlink:href="#m5ce67edd17" x="110.810605" y="315.083077" style="fill: #ff0000; stroke: #ff0000"/>
     <use xlink:href="#m5ce67edd17" x="118.735596" y="281.53007" style="fill: #ff0000; stroke: #ff0000"/>
     <use xlink:href="#m5ce67edd17" x="129.818912" y="282.129231" style="fill: #ff0000; stroke: #ff0000"/>
     <use xlink:href="#m5ce67edd17" x="145.321438" y="244.105562" style="fill: #ff0000; stroke: #ff0000"/>
     <use xlink:href="#m5ce67edd17" x="167.003529" y="257.413846" style="fill: #ff0000; stroke: #ff0000"/>
     <use xlink:href="#m5ce67edd17" x="197.331313" y="233.667692" style="fill: #ff0000; stroke: #ff0000"/>
     <use xlink:href="#m5ce67edd17" x="239.746778" y="229.790769" style="fill: #ff0000; stroke: #ff0000"/>
     <use xlink:href="#m5ce67edd17" x="299.073596" y="123.175385" style="fill: #ff0000; stroke: #ff0000"/>
     <use xlink:href="#m5ce67edd17" x="382.051877" y="144.498462" style="fill: #ff0000; stroke: #ff0000"/>
     <use xlink:href="#m5ce67edd17" x="498.109091" y="104.241236" style="fill: #ff0000; stroke: #ff0000"/>
    </g>
   </g>
   <g id="matplotlib.axis_1">
    <g id="xtick_1">
     <g id="line2d_1">
      <path d="M 90.933658 384.48 
L 90.933658 51.84 
" clip-path="url(#p4465f0de7d)" style="fill: none; stroke-dasharray: 2.96,1.28; stroke-dashoffset: 0; stroke: #b0b0b0; stroke-opacity: 0.6; stroke-width: 0.8"/>
     </g>
     <g id="line2d_2">
      <defs>
       <path id="me7ac7117c2" d="M 0 0 
L 0 3.5 
" style="stroke: #000000; stroke-width: 0.8"/>
      </defs>
      <g>
       <use xlink:href="#me7ac7117c2" x="90.933658" y="384.48" style="stroke: #000000; stroke-width: 0.8"/>
      </g>
     </g>
     <g id="text_1">
      <!-- 0 -->
      <g transform="translate(87.752408 399.078438) scale(0.1 -0.1)">
       <defs>
        <path id="DejaVuSans-30" d="M 2034 4250 
Q 1547 4250 1301 3770 
Q 1056 3291 1056 2328 
Q 1056 1369 1301 889 
Q 1547 409 2034 409 
Q 2525 409 2770 889 
Q 3016 1369 3016 2328 
Q 3016 3291 2770 3770 
Q 2525 4250 2034 4250 
z
M 2034 4750 
Q 2819 4750 3233 4129 
Q 3647 3509 3647 2328 
Q 3647 1150 3233 529 
Q 2819 -91 2034 -91 
Q 1250 -91 836 529 
Q 422 1150 422 2328 
Q 422 3509 836 4129 
Q 1250 4750 2034 4750 
z
" transform="scale(0.015625)"/>
       </defs>
       <use xlink:href="#DejaVuSans-30"/>
      </g>
     </g>
    </g>
    <g id="xtick_2">
     <g id="line2d_3">
      <path d="M 158.79623 384.48 
L 158.79623 51.84 
" clip-path="url(#p4465f0de7d)" style="fill: none; stroke-dasharray: 2.96,1.28; stroke-dashoffset: 0; stroke: #b0b0b0; stroke-opacity: 0.6; stroke-width: 0.8"/>
     </g>
     <g id="line2d_4">
      <g>
       <use xlink:href="#me7ac7117c2" x="158.79623" y="384.48" style="stroke: #000000; stroke-width: 0.8"/>
      </g>
     </g>
     <g id="text_2">
      <!-- 5 -->
      <g transform="translate(155.61498 399.078438) scale(0.1 -0.1)">
       <defs>
        <path id="DejaVuSans-35" d="M 691 4666 
L 3169 4666 
L 3169 4134 
L 1269 4134 
L 1269 2991 
Q 1406 3038 1543 3061 
Q 1681 3084 1819 3084 
Q 2600 3084 3056 2656 
Q 3513 2228 3513 1497 
Q 3513 744 3044 326 
Q 2575 -91 1722 -91 
Q 1428 -91 1123 -41 
Q 819 9 494 109 
L 494 744 
Q 775 591 1075 516 
Q 1375 441 1709 441 
Q 2250 441 2565 725 
Q 2881 1009 2881 1497 
Q 2881 1984 2565 2268 
Q 2250 2553 1709 2553 
Q 1456 2553 1204 2497 
Q 953 2441 691 2322 
L 691 4666 
z
" transform="scale(0.015625)"/>
       </defs>
       <use xlink:href="#DejaVuSans-35"/>
      </g>
     </g>
    </g>
    <g id="xtick_3">
     <g id="line2d_5">
      <path d="M 226.658802 384.48 
L 226.658802 51.84 
" clip-path="url(#p4465f0de7d)" style="fill: none; stroke-dasharray: 2.96,1.28; stroke-dashoffset: 0; stroke: #b0b0b0; stroke-opacity: 0.6; stroke-width: 0.8"/>
     </g>
     <g id="line2d_6">
      <g>
       <use xlink:href="#me7ac7117c2" x="226.658802" y="384.48" style="stroke: #000000; stroke-width: 0.8"/>
      </g>
     </g>
     <g id="text_3">
      <!-- 10 -->
      <g transform="translate(220.296302 399.078438) scale(0.1 -0.1)">
       <defs>
        <path id="DejaVuSans-31" d="M 794 531 
L 1825 531 
L 1825 4091 
L 703 3866 
L 703 4441 
L 1819 4666 
L 2450 4666 
L 2450 531 
L 3481 531 
L 3481 0 
L 794 0 
L 794 531 
z
" transform="scale(0.015625)"/>
       </defs>
       <use xlink:href="#DejaVuSans-31"/>
       <use xlink:href="#DejaVuSans-30" x="63.623047"/>
      </g>
     </g>
    </g>
    <g id="xtick_4">
     <g id="line2d_7">
      <path d="M 294.521374 384.48 
L 294.521374 51.84 
" clip-path="url(#p4465f0de7d)" style="fill: none; stroke-dasharray: 2.96,1.28; stroke-dashoffset: 0; stroke: #b0b0b0; stroke-opacity: 0.6; stroke-width: 0.8"/>
     </g>
     <g id="line2d_8">
      <g>
       <use xlink:href="#me7ac7117c2" x="294.521374" y="384.48" style="stroke: #000000; stroke-width: 0.8"/>
      </g>
     </g>
     <g id="text_4">
      <!-- 15 -->
      <g transform="translate(288.158874 399.078438) scale(0.1 -0.1)">
       <use xlink:href="#DejaVuSans-31"/>
       <use xlink:href="#DejaVuSans-35" x="63.623047"/>
      </g>
     </g>
    </g>
    <g id="xtick_5">
     <g id="line2d_9">
      <path d="M 362.383946 384.48 
L 362.383946 51.84 
" clip-path="url(#p4465f0de7d)" style="fill: none; stroke-dasharray: 2.96,1.28; stroke-dashoffset: 0; stroke: #b0b0b0; stroke-opacity: 0.6; stroke-width: 0.8"/>
     </g>
     <g id="line2d_10">
      <g>
       <use xlink:href="#me7ac7117c2" x="362.383946" y="384.48" style="stroke: #000000; stroke-width: 0.8"/>
      </g>
     </g>
     <g id="text_5">
      <!-- 20 -->
      <g transform="translate(356.021446 399.078438) scale(0.1 -0.1)">
       <defs>
        <path id="DejaVuSans-32" d="M 1228 531 
L 3431 531 
L 3431 0 
L 469 0 
L 469 531 
Q 828 903 1448 1529 
Q 2069 2156 2228 2338 
Q 2531 2678 2651 2914 
Q 2772 3150 2772 3378 
Q 2772 3750 2511 3984 
Q 2250 4219 1831 4219 
Q 1534 4219 1204 4116 
Q 875 4013 500 3803 
L 500 4441 
Q 881 4594 1212 4672 
Q 1544 4750 1819 4750 
Q 2544 4750 2975 4387 
Q 3406 4025 3406 3419 
Q 3406 3131 3298 2873 
Q 3191 2616 2906 2266 
Q 2828 2175 2409 1742 
Q 1991 1309 1228 531 
z
" transform="scale(0.015625)"/>
       </defs>
       <use xlink:href="#DejaVuSans-32"/>
       <use xlink:href="#DejaVuSans-30" x="63.623047"/>
      </g>
     </g>
    </g>
    <g id="xtick_6">
     <g id="line2d_11">
      <path d="M 430.246519 384.48 
L 430.246519 51.84 
" clip-path="url(#p4465f0de7d)" style="fill: none; stroke-dasharray: 2.96,1.28; stroke-dashoffset: 0; stroke: #b0b0b0; stroke-opacity: 0.6; stroke-width: 0.8"/>
     </g>
     <g id="line2d_12">
      <g>
       <use xlink:href="#me7ac7117c2" x="430.246519" y="384.48" style="stroke: #000000; stroke-width: 0.8"/>
      </g>
     </g>
     <g id="text_6">
      <!-- 25 -->
      <g transform="translate(423.884019 399.078438) scale(0.1 -0.1)">
       <use xlink:href="#DejaVuSans-32"/>
       <use xlink:href="#DejaVuSans-35" x="63.623047"/>
      </g>
     </g>
    </g>
    <g id="xtick_7">
     <g id="line2d_13">
      <path d="M 498.109091 384.48 
L 498.109091 51.84 
" clip-path="url(#p4465f0de7d)" style="fill: none; stroke-dasharray: 2.96,1.28; stroke-dashoffset: 0; stroke: #b0b0b0; stroke-opacity: 0.6; stroke-width: 0.8"/>
     </g>
     <g id="line2d_14">
      <g>
       <use xlink:href="#me7ac7117c2" x="498.109091" y="384.48" style="stroke: #000000; stroke-width: 0.8"/>
      </g>
     </g>
     <g id="text_7">
      <!-- 30 -->
      <g transform="translate(491.746591 399.078438) scale(0.1 -0.1)">
       <defs>
        <path id="DejaVuSans-33" d="M 2597 2516 
Q 3050 2419 3304 2112 
Q 3559 1806 3559 1356 
Q 3559 666 3084 287 
Q 2609 -91 1734 -91 
Q 1441 -91 1130 -33 
Q 819 25 488 141 
L 488 750 
Q 750 597 1062 519 
Q 1375 441 1716 441 
Q 2309 441 2620 675 
Q 2931 909 2931 1356 
Q 2931 1769 2642 2001 
Q 2353 2234 1838 2234 
L 1294 2234 
L 1294 2753 
L 1863 2753 
Q 2328 2753 2575 2939 
Q 2822 3125 2822 3475 
Q 2822 3834 2567 4026 
Q 2313 4219 1838 4219 
Q 1578 4219 1281 4162 
Q 984 4106 628 3988 
L 628 4550 
Q 988 4650 1302 4700 
Q 1616 4750 1894 4750 
Q 2613 4750 3031 4423 
Q 3450 4097 3450 3541 
Q 3450 3153 3228 2886 
Q 3006 2619 2597 2516 
z
" transform="scale(0.015625)"/>
       </defs>
       <use xlink:href="#DejaVuSans-33"/>
       <use xlink:href="#DejaVuSans-30" x="63.623047"/>
      </g>
     </g>
    </g>
    <g id="text_8">
     <!-- Contrast -->
     <g transform="translate(265.290312 415.795938) scale(0.14 -0.14)">
      <defs>
       <path id="DejaVuSans-43" d="M 4122 4306 
L 4122 3641 
Q 3803 3938 3442 4084 
Q 3081 4231 2675 4231 
Q 1875 4231 1450 3742 
Q 1025 3253 1025 2328 
Q 1025 1406 1450 917 
Q 1875 428 2675 428 
Q 3081 428 3442 575 
Q 3803 722 4122 1019 
L 4122 359 
Q 3791 134 3420 21 
Q 3050 -91 2638 -91 
Q 1578 -91 968 557 
Q 359 1206 359 2328 
Q 359 3453 968 4101 
Q 1578 4750 2638 4750 
Q 3056 4750 3426 4639 
Q 3797 4528 4122 4306 
z
" transform="scale(0.015625)"/>
       <path id="DejaVuSans-6f" d="M 1959 3097 
Q 1497 3097 1228 2736 
Q 959 2375 959 1747 
Q 959 1119 1226 758 
Q 1494 397 1959 397 
Q 2419 397 2687 759 
Q 2956 1122 2956 1747 
Q 2956 2369 2687 2733 
Q 2419 3097 1959 3097 
z
M 1959 3584 
Q 2709 3584 3137 3096 
Q 3566 2609 3566 1747 
Q 3566 888 3137 398 
Q 2709 -91 1959 -91 
Q 1206 -91 779 398 
Q 353 888 353 1747 
Q 353 2609 779 3096 
Q 1206 3584 1959 3584 
z
" transform="scale(0.015625)"/>
       <path id="DejaVuSans-6e" d="M 3513 2113 
L 3513 0 
L 2938 0 
L 2938 2094 
Q 2938 2591 2744 2837 
Q 2550 3084 2163 3084 
Q 1697 3084 1428 2787 
Q 1159 2491 1159 1978 
L 1159 0 
L 581 0 
L 581 3500 
L 1159 3500 
L 1159 2956 
Q 1366 3272 1645 3428 
Q 1925 3584 2291 3584 
Q 2894 3584 3203 3211 
Q 3513 2838 3513 2113 
z
" transform="scale(0.015625)"/>
       <path id="DejaVuSans-74" d="M 1172 4494 
L 1172 3500 
L 2356 3500 
L 2356 3053 
L 1172 3053 
L 1172 1153 
Q 1172 725 1289 603 
Q 1406 481 1766 481 
L 2356 481 
L 2356 0 
L 1766 0 
Q 1100 0 847 248 
Q 594 497 594 1153 
L 594 3053 
L 172 3053 
L 172 3500 
L 594 3500 
L 594 4494 
L 1172 4494 
z
" transform="scale(0.015625)"/>
       <path id="DejaVuSans-72" d="M 2631 2963 
Q 2534 3019 2420 3045 
Q 2306 3072 2169 3072 
Q 1681 3072 1420 2755 
Q 1159 2438 1159 1844 
L 1159 0 
L 581 0 
L 581 3500 
L 1159 3500 
L 1159 2956 
Q 1341 3275 1631 3429 
Q 1922 3584 2338 3584 
Q 2397 3584 2469 3576 
Q 2541 3569 2628 3553 
L 2631 2963 
z
" transform="scale(0.015625)"/>
       <path id="DejaVuSans-61" d="M 2194 1759 
Q 1497 1759 1228 1600 
Q 959 1441 959 1056 
Q 959 750 1161 570 
Q 1363 391 1709 391 
Q 2188 391 2477 730 
Q 2766 1069 2766 1631 
L 2766 1759 
L 2194 1759 
z
M 3341 1997 
L 3341 0 
L 2766 0 
L 2766 531 
Q 2569 213 2275 61 
Q 1981 -91 1556 -91 
Q 1019 -91 701 211 
Q 384 513 384 1019 
Q 384 1609 779 1909 
Q 1175 2209 1959 2209 
L 2766 2209 
L 2766 2266 
Q 2766 2663 2505 2880 
Q 2244 3097 1772 3097 
Q 1472 3097 1187 3025 
Q 903 2953 641 2809 
L 641 3341 
Q 956 3463 1253 3523 
Q 1550 3584 1831 3584 
Q 2591 3584 2966 3190 
Q 3341 2797 3341 1997 
z
" transform="scale(0.015625)"/>
       <path id="DejaVuSans-73" d="M 2834 3397 
L 2834 2853 
Q 2591 2978 2328 3040 
Q 2066 3103 1784 3103 
Q 1356 3103 1142 2972 
Q 928 2841 928 2578 
Q 928 2378 1081 2264 
Q 1234 2150 1697 2047 
L 1894 2003 
Q 2506 1872 2764 1633 
Q 3022 1394 3022 966 
Q 3022 478 2636 193 
Q 2250 -91 1575 -91 
Q 1294 -91 989 -36 
Q 684 19 347 128 
L 347 722 
Q 666 556 975 473 
Q 1284 391 1588 391 
Q 1994 391 2212 530 
Q 2431 669 2431 922 
Q 2431 1156 2273 1281 
Q 2116 1406 1581 1522 
L 1381 1569 
Q 847 1681 609 1914 
Q 372 2147 372 2553 
Q 372 3047 722 3315 
Q 1072 3584 1716 3584 
Q 2034 3584 2315 3537 
Q 2597 3491 2834 3397 
z
" transform="scale(0.015625)"/>
      </defs>
      <use xlink:href="#DejaVuSans-43"/>
      <use xlink:href="#DejaVuSans-6f" x="69.824219"/>
      <use xlink:href="#DejaVuSans-6e" x="131.005859"/>
      <use xlink:href="#DejaVuSans-74" x="194.384766"/>
      <use xlink:href="#DejaVuSans-72" x="233.59375"/>
      <use xlink:href="#DejaVuSans-61" x="274.707031"/>
      <use xlink:href="#DejaVuSans-73" x="335.986328"/>
      <use xlink:href="#DejaVuSans-74" x="388.085938"/>
     </g>
    </g>
   </g>
   <g id="matplotlib.axis_2">
    <g id="ytick_1">
     <g id="line2d_15">
      <path d="M 72 369.36 
L 518.4 369.36 
" clip-path="url(#p4465f0de7d)" style="fill: none; stroke-dasharray: 2.96,1.28; stroke-dashoffset: 0; stroke: #b0b0b0; stroke-opacity: 0.6; stroke-width: 0.8"/>
     </g>
     <g id="line2d_16">
      <defs>
       <path id="m2b6d4737fa" d="M 0 0 
L -3.5 0 
" style="stroke: #000000; stroke-width: 0.8"/>
      </defs>
      <g>
       <use xlink:href="#m2b6d4737fa" x="72" y="369.36" style="stroke: #000000; stroke-width: 0.8"/>
      </g>
     </g>
     <g id="text_9">
      <!-- 0.5 -->
      <g transform="translate(49.096875 373.159219) scale(0.1 -0.1)">
       <defs>
        <path id="DejaVuSans-2e" d="M 684 794 
L 1344 794 
L 1344 0 
L 684 0 
L 684 794 
z
" transform="scale(0.015625)"/>
       </defs>
       <use xlink:href="#DejaVuSans-30"/>
       <use xlink:href="#DejaVuSans-2e" x="63.623047"/>
       <use xlink:href="#DejaVuSans-35" x="95.410156"/>
      </g>
     </g>
    </g>
    <g id="ytick_2">
     <g id="line2d_17">
      <path d="M 72 304.227692 
L 518.4 304.227692 
" clip-path="url(#p4465f0de7d)" style="fill: none; stroke-dasharray: 2.96,1.28; stroke-dashoffset: 0; stroke: #b0b0b0; stroke-opacity: 0.6; stroke-width: 0.8"/>
     </g>
     <g id="line2d_18">
      <g>
       <use xlink:href="#m2b6d4737fa" x="72" y="304.227692" style="stroke: #000000; stroke-width: 0.8"/>
      </g>
     </g>
     <g id="text_10">
      <!-- 0.6 -->
      <g transform="translate(49.096875 308.026911) scale(0.1 -0.1)">
       <defs>
        <path id="DejaVuSans-36" d="M 2113 2584 
Q 1688 2584 1439 2293 
Q 1191 2003 1191 1497 
Q 1191 994 1439 701 
Q 1688 409 2113 409 
Q 2538 409 2786 701 
Q 3034 994 3034 1497 
Q 3034 2003 2786 2293 
Q 2538 2584 2113 2584 
z
M 3366 4563 
L 3366 3988 
Q 3128 4100 2886 4159 
Q 2644 4219 2406 4219 
Q 1781 4219 1451 3797 
Q 1122 3375 1075 2522 
Q 1259 2794 1537 2939 
Q 1816 3084 2150 3084 
Q 2853 3084 3261 2657 
Q 3669 2231 3669 1497 
Q 3669 778 3244 343 
Q 2819 -91 2113 -91 
Q 1303 -91 875 529 
Q 447 1150 447 2328 
Q 447 3434 972 4092 
Q 1497 4750 2381 4750 
Q 2619 4750 2861 4703 
Q 3103 4656 3366 4563 
z
" transform="scale(0.015625)"/>
       </defs>
       <use xlink:href="#DejaVuSans-30"/>
       <use xlink:href="#DejaVuSans-2e" x="63.623047"/>
       <use xlink:href="#DejaVuSans-36" x="95.410156"/>
      </g>
     </g>
    </g>
    <g id="ytick_3">
     <g id="line2d_19">
      <path d="M 72 239.095385 
L 518.4 239.095385 
" clip-path="url(#p4465f0de7d)" style="fill: none; stroke-dasharray: 2.96,1.28; stroke-dashoffset: 0; stroke: #b0b0b0; stroke-opacity: 0.6; stroke-width: 0.8"/>
     </g>
     <g id="line2d_20">
      <g>
       <use xlink:href="#m2b6d4737fa" x="72" y="239.095385" style="stroke: #000000; stroke-width: 0.8"/>
      </g>
     </g>
     <g id="text_11">
      <!-- 0.7 -->
      <g transform="translate(49.096875 242.894603) scale(0.1 -0.1)">
       <defs>
        <path id="DejaVuSans-37" d="M 525 4666 
L 3525 4666 
L 3525 4397 
L 1831 0 
L 1172 0 
L 2766 4134 
L 525 4134 
L 525 4666 
z
" transform="scale(0.015625)"/>
       </defs>
       <use xlink:href="#DejaVuSans-30"/>
       <use xlink:href="#DejaVuSans-2e" x="63.623047"/>
       <use xlink:href="#DejaVuSans-37" x="95.410156"/>
      </g>
     </g>
    </g>
    <g id="ytick_4">
     <g id="line2d_21">
      <path d="M 72 173.963077 
L 518.4 173.963077 
" clip-path="url(#p4465f0de7d)" style="fill: none; stroke-dasharray: 2.96,1.28; stroke-dashoffset: 0; stroke: #b0b0b0; stroke-opacity: 0.6; stroke-width: 0.8"/>
     </g>
     <g id="line2d_22">
      <g>
       <use xlink:href="#m2b6d4737fa" x="72" y="173.963077" style="stroke: #000000; stroke-width: 0.8"/>
      </g>
     </g>
     <g id="text_12">
      <!-- 0.8 -->
      <g transform="translate(49.096875 177.762296) scale(0.1 -0.1)">
       <defs>
        <path id="DejaVuSans-38" d="M 2034 2216 
Q 1584 2216 1326 1975 
Q 1069 1734 1069 1313 
Q 1069 891 1326 650 
Q 1584 409 2034 409 
Q 2484 409 2743 651 
Q 3003 894 3003 1313 
Q 3003 1734 2745 1975 
Q 2488 2216 2034 2216 
z
M 1403 2484 
Q 997 2584 770 2862 
Q 544 3141 544 3541 
Q 544 4100 942 4425 
Q 1341 4750 2034 4750 
Q 2731 4750 3128 4425 
Q 3525 4100 3525 3541 
Q 3525 3141 3298 2862 
Q 3072 2584 2669 2484 
Q 3125 2378 3379 2068 
Q 3634 1759 3634 1313 
Q 3634 634 3220 271 
Q 2806 -91 2034 -91 
Q 1263 -91 848 271 
Q 434 634 434 1313 
Q 434 1759 690 2068 
Q 947 2378 1403 2484 
z
M 1172 3481 
Q 1172 3119 1398 2916 
Q 1625 2713 2034 2713 
Q 2441 2713 2670 2916 
Q 2900 3119 2900 3481 
Q 2900 3844 2670 4047 
Q 2441 4250 2034 4250 
Q 1625 4250 1398 4047 
Q 1172 3844 1172 3481 
z
" transform="scale(0.015625)"/>
       </defs>
       <use xlink:href="#DejaVuSans-30"/>
       <use xlink:href="#DejaVuSans-2e" x="63.623047"/>
       <use xlink:href="#DejaVuSans-38" x="95.410156"/>
      </g>
     </g>
    </g>
    <g id="ytick_5">
     <g id="line2d_23">
      <path d="M 72 108.830769 
L 518.4 108.830769 
" clip-path="url(#p4465f0de7d)" style="fill: none; stroke-dasharray: 2.96,1.28; stroke-dashoffset: 0; stroke: #b0b0b0; stroke-opacity: 0.6; stroke-width: 0.8"/>
     </g>
     <g id="line2d_24">
      <g>
       <use xlink:href="#m2b6d4737fa" x="72" y="108.830769" style="stroke: #000000; stroke-width: 0.8"/>
      </g>
     </g>
     <g id="text_13">
      <!-- 0.9 -->
      <g transform="translate(49.096875 112.629988) scale(0.1 -0.1)">
       <defs>
        <path id="DejaVuSans-39" d="M 703 97 
L 703 672 
Q 941 559 1184 500 
Q 1428 441 1663 441 
Q 2288 441 2617 861 
Q 2947 1281 2994 2138 
Q 2813 1869 2534 1725 
Q 2256 1581 1919 1581 
Q 1219 1581 811 2004 
Q 403 2428 403 3163 
Q 403 3881 828 4315 
Q 1253 4750 1959 4750 
Q 2769 4750 3195 4129 
Q 3622 3509 3622 2328 
Q 3622 1225 3098 567 
Q 2575 -91 1691 -91 
Q 1453 -91 1209 -44 
Q 966 3 703 97 
z
M 1959 2075 
Q 2384 2075 2632 2365 
Q 2881 2656 2881 3163 
Q 2881 3666 2632 3958 
Q 2384 4250 1959 4250 
Q 1534 4250 1286 3958 
Q 1038 3666 1038 3163 
Q 1038 2656 1286 2365 
Q 1534 2075 1959 2075 
z
" transform="scale(0.015625)"/>
       </defs>
       <use xlink:href="#DejaVuSans-30"/>
       <use xlink:href="#DejaVuSans-2e" x="63.623047"/>
       <use xlink:href="#DejaVuSans-39" x="95.410156"/>
      </g>
     </g>
    </g>
    <g id="text_14">
     <!-- Accuracy -->
     <g transform="translate(42.185312 250.119375) rotate(-90) scale(0.14 -0.14)">
      <defs>
       <path id="DejaVuSans-41" d="M 2188 4044 
L 1331 1722 
L 3047 1722 
L 2188 4044 
z
M 1831 4666 
L 2547 4666 
L 4325 0 
L 3669 0 
L 3244 1197 
L 1141 1197 
L 716 0 
L 50 0 
L 1831 4666 
z
" transform="scale(0.015625)"/>
       <path id="DejaVuSans-63" d="M 3122 3366 
L 3122 2828 
Q 2878 2963 2633 3030 
Q 2388 3097 2138 3097 
Q 1578 3097 1268 2742 
Q 959 2388 959 1747 
Q 959 1106 1268 751 
Q 1578 397 2138 397 
Q 2388 397 2633 464 
Q 2878 531 3122 666 
L 3122 134 
Q 2881 22 2623 -34 
Q 2366 -91 2075 -91 
Q 1284 -91 818 406 
Q 353 903 353 1747 
Q 353 2603 823 3093 
Q 1294 3584 2113 3584 
Q 2378 3584 2631 3529 
Q 2884 3475 3122 3366 
z
" transform="scale(0.015625)"/>
       <path id="DejaVuSans-75" d="M 544 1381 
L 544 3500 
L 1119 3500 
L 1119 1403 
Q 1119 906 1312 657 
Q 1506 409 1894 409 
Q 2359 409 2629 706 
Q 2900 1003 2900 1516 
L 2900 3500 
L 3475 3500 
L 3475 0 
L 2900 0 
L 2900 538 
Q 2691 219 2414 64 
Q 2138 -91 1772 -91 
Q 1169 -91 856 284 
Q 544 659 544 1381 
z
M 1991 3584 
L 1991 3584 
z
" transform="scale(0.015625)"/>
       <path id="DejaVuSans-79" d="M 2059 -325 
Q 1816 -950 1584 -1140 
Q 1353 -1331 966 -1331 
L 506 -1331 
L 506 -850 
L 844 -850 
Q 1081 -850 1212 -737 
Q 1344 -625 1503 -206 
L 1606 56 
L 191 3500 
L 800 3500 
L 1894 763 
L 2988 3500 
L 3597 3500 
L 2059 -325 
z
" transform="scale(0.015625)"/>
      </defs>
      <use xlink:href="#DejaVuSans-41"/>
      <use xlink:href="#DejaVuSans-63" x="66.658203"/>
      <use xlink:href="#DejaVuSans-63" x="121.638672"/>
      <use xlink:href="#DejaVuSans-75" x="176.619141"/>
      <use xlink:href="#DejaVuSans-72" x="239.998047"/>
      <use xlink:href="#DejaVuSans-61" x="281.111328"/>
      <use xlink:href="#DejaVuSans-63" x="342.390625"/>
      <use xlink:href="#DejaVuSans-79" x="397.371094"/>
     </g>
    </g>
   </g>
   <g id="line2d_25">
    <path d="M 92.290909 340.175297 
L 96.357224 329.438674 
L 100.423538 319.312846 
L 104.489852 309.763098 
L 108.556167 300.756685 
L 112.622481 292.262722 
L 116.688796 284.252075 
L 120.75511 276.697264 
L 124.821425 269.572368 
L 128.887739 262.852941 
L 132.954054 256.515921 
L 137.020368 250.539559 
L 141.086682 244.903342 
L 145.152997 239.587919 
L 150.032574 233.60724 
L 154.912152 228.032707 
L 159.791729 222.836752 
L 164.671306 217.993674 
L 169.550884 213.479517 
L 174.430461 209.271951 
L 179.310038 205.35016 
L 184.189616 201.694739 
L 189.069193 198.287603 
L 194.762033 194.603987 
L 200.454873 191.210597 
L 206.147714 188.084572 
L 211.840554 185.204852 
L 217.533394 182.552032 
L 224.039497 179.775212 
L 230.5456 177.247008 
L 237.051703 174.945166 
L 244.371069 172.601005 
L 251.690435 170.491611 
L 259.823064 168.394671 
L 267.955693 166.52974 
L 276.901585 164.715737 
L 285.847477 163.12125 
L 295.606631 161.601041 
L 306.179049 160.178479 
L 317.564729 158.870583 
L 329.763673 157.68818 
L 343.589142 156.576959 
L 359.041137 155.570918 
L 376.119657 154.691033 
L 395.637967 153.918055 
L 418.409328 153.252446 
L 445.247003 152.702902 
L 477.777519 152.267461 
L 498.109091 152.082589 
L 498.109091 152.082589 
" clip-path="url(#p4465f0de7d)" style="fill: none; stroke: #1f77b4; stroke-width: 1.5; stroke-linecap: square"/>
   </g>
   <g id="line2d_26">
    <path d="M 92.290909 302.294482 
L 192.322244 302.193042 
L 201.268136 301.951245 
L 206.147714 301.627762 
L 210.214028 301.136337 
L 213.46708 300.495244 
L 215.906868 299.793514 
L 218.346657 298.822757 
L 219.973183 297.978564 
L 221.599709 296.934535 
L 223.226234 295.646292 
L 224.85276 294.061148 
L 226.479286 292.117377 
L 228.105812 289.743876 
L 229.732337 286.860521 
L 231.358863 283.379616 
L 232.985389 279.208896 
L 234.611915 274.256573 
L 236.238441 268.438828 
L 237.864966 261.689811 
L 239.491492 253.973694 
L 241.118018 245.297479 
L 243.557807 230.63352 
L 245.997595 214.426046 
L 252.503698 169.766217 
L 254.943487 154.926844 
L 256.570013 146.114343 
L 258.196539 138.256621 
L 259.823064 131.367944 
L 261.44959 125.417937 
L 263.076116 120.344342 
L 264.702642 116.065278 
L 266.329167 112.489592 
L 267.955693 109.52472 
L 269.582219 107.082069 
L 271.208745 105.08029 
L 272.835271 103.446921 
L 274.461796 102.118875 
L 276.088322 101.04219 
L 277.714848 100.171328 
L 280.154637 99.169613 
L 282.594425 98.445311 
L 285.847477 97.783454 
L 289.100528 97.356493 
L 293.980106 96.983463 
L 300.486209 96.750692 
L 311.871889 96.622024 
L 344.402405 96.587865 
L 498.109091 96.587456 
L 498.109091 96.587456 
" clip-path="url(#p4465f0de7d)" style="fill: none; stroke: #ff7f0e; stroke-width: 1.5; stroke-linecap: square"/>
   </g>
   <g id="line2d_27">
    <path d="M 92.290909 320.983701 
L 121.568373 293.495754 
L 137.833631 278.523584 
L 151.6591 266.081593 
L 164.671306 254.674005 
L 176.056987 244.973125 
L 187.442667 235.564936 
L 198.015085 227.112747 
L 208.587502 218.951239 
L 218.346657 211.687306 
L 228.105812 204.690911 
L 237.864966 197.968135 
L 247.624121 191.522959 
L 257.383276 185.357383 
L 267.14243 179.47157 
L 276.901585 173.864011 
L 286.66074 168.531679 
L 296.419894 163.470212 
L 306.179049 158.674073 
L 315.938204 154.136727 
L 325.697358 149.850799 
L 335.456513 145.808227 
L 345.215668 142.000409 
L 354.974822 138.418333 
L 365.54724 134.781706 
L 376.119657 131.387044 
L 386.692075 128.222192 
L 398.077756 125.056981 
L 409.463436 122.129242 
L 420.849116 119.424288 
L 433.04806 116.757131 
L 445.247003 114.312385 
L 458.259209 111.931533 
L 472.084678 109.638019 
L 485.910148 107.567105 
L 498.109091 105.908897 
L 498.109091 105.908897 
" clip-path="url(#p4465f0de7d)" style="fill: none; stroke: #ff0000; stroke-width: 1.5; stroke-linecap: square"/>
   </g>
   <g id="line2d_28">
    <path d="M 72 206.529231 
L 518.4 206.529231 
" clip-path="url(#p4465f0de7d)" style="fill: none; stroke-dasharray: 5.55,2.4; stroke-dashoffset: 0; stroke: #008000; stroke-width: 1.5"/>
   </g>
   <g id="patch_3">
    <path d="M 72 384.48 
L 72 51.84 
" style="fill: none; stroke: #000000; stroke-width: 0.8; stroke-linejoin: miter; stroke-linecap: square"/>
   </g>
   <g id="patch_4">
    <path d="M 518.4 384.48 
L 518.4 51.84 
" style="fill: none; stroke: #000000; stroke-width: 0.8; stroke-linejoin: miter; stroke-linecap: square"/>
   </g>
   <g id="patch_5">
    <path d="M 72 384.48 
L 518.4 384.48 
" style="fill: none; stroke: #000000; stroke-width: 0.8; stroke-linejoin: miter; stroke-linecap: square"/>
   </g>
   <g id="patch_6">
    <path d="M 72 51.84 
L 518.4 51.84 
" style="fill: none; stroke: #000000; stroke-width: 0.8; stroke-linejoin: miter; stroke-linecap: square"/>
   </g>
   <g id="text_15">
    <!-- P7 Stimulus/Baseline Prediction Accuracy vs Contrast (LDA, Filtered channels) -->
    <g transform="translate(100.71875 45.84) scale(0.1 -0.1)">
     <defs>
      <path id="DejaVuSans-50" d="M 1259 4147 
L 1259 2394 
L 2053 2394 
Q 2494 2394 2734 2622 
Q 2975 2850 2975 3272 
Q 2975 3691 2734 3919 
Q 2494 4147 2053 4147 
L 1259 4147 
z
M 628 4666 
L 2053 4666 
Q 2838 4666 3239 4311 
Q 3641 3956 3641 3272 
Q 3641 2581 3239 2228 
Q 2838 1875 2053 1875 
L 1259 1875 
L 1259 0 
L 628 0 
L 628 4666 
z
" transform="scale(0.015625)"/>
      <path id="DejaVuSans-20" transform="scale(0.015625)"/>
      <path id="DejaVuSans-53" d="M 3425 4513 
L 3425 3897 
Q 3066 4069 2747 4153 
Q 2428 4238 2131 4238 
Q 1616 4238 1336 4038 
Q 1056 3838 1056 3469 
Q 1056 3159 1242 3001 
Q 1428 2844 1947 2747 
L 2328 2669 
Q 3034 2534 3370 2195 
Q 3706 1856 3706 1288 
Q 3706 609 3251 259 
Q 2797 -91 1919 -91 
Q 1588 -91 1214 -16 
Q 841 59 441 206 
L 441 856 
Q 825 641 1194 531 
Q 1563 422 1919 422 
Q 2459 422 2753 634 
Q 3047 847 3047 1241 
Q 3047 1584 2836 1778 
Q 2625 1972 2144 2069 
L 1759 2144 
Q 1053 2284 737 2584 
Q 422 2884 422 3419 
Q 422 4038 858 4394 
Q 1294 4750 2059 4750 
Q 2388 4750 2728 4690 
Q 3069 4631 3425 4513 
z
" transform="scale(0.015625)"/>
      <path id="DejaVuSans-69" d="M 603 3500 
L 1178 3500 
L 1178 0 
L 603 0 
L 603 3500 
z
M 603 4863 
L 1178 4863 
L 1178 4134 
L 603 4134 
L 603 4863 
z
" transform="scale(0.015625)"/>
      <path id="DejaVuSans-6d" d="M 3328 2828 
Q 3544 3216 3844 3400 
Q 4144 3584 4550 3584 
Q 5097 3584 5394 3201 
Q 5691 2819 5691 2113 
L 5691 0 
L 5113 0 
L 5113 2094 
Q 5113 2597 4934 2840 
Q 4756 3084 4391 3084 
Q 3944 3084 3684 2787 
Q 3425 2491 3425 1978 
L 3425 0 
L 2847 0 
L 2847 2094 
Q 2847 2600 2669 2842 
Q 2491 3084 2119 3084 
Q 1678 3084 1418 2786 
Q 1159 2488 1159 1978 
L 1159 0 
L 581 0 
L 581 3500 
L 1159 3500 
L 1159 2956 
Q 1356 3278 1631 3431 
Q 1906 3584 2284 3584 
Q 2666 3584 2933 3390 
Q 3200 3197 3328 2828 
z
" transform="scale(0.015625)"/>
      <path id="DejaVuSans-6c" d="M 603 4863 
L 1178 4863 
L 1178 0 
L 603 0 
L 603 4863 
z
" transform="scale(0.015625)"/>
      <path id="DejaVuSans-2f" d="M 1625 4666 
L 2156 4666 
L 531 -594 
L 0 -594 
L 1625 4666 
z
" transform="scale(0.015625)"/>
      <path id="DejaVuSans-42" d="M 1259 2228 
L 1259 519 
L 2272 519 
Q 2781 519 3026 730 
Q 3272 941 3272 1375 
Q 3272 1813 3026 2020 
Q 2781 2228 2272 2228 
L 1259 2228 
z
M 1259 4147 
L 1259 2741 
L 2194 2741 
Q 2656 2741 2882 2914 
Q 3109 3088 3109 3444 
Q 3109 3797 2882 3972 
Q 2656 4147 2194 4147 
L 1259 4147 
z
M 628 4666 
L 2241 4666 
Q 2963 4666 3353 4366 
Q 3744 4066 3744 3513 
Q 3744 3084 3544 2831 
Q 3344 2578 2956 2516 
Q 3422 2416 3680 2098 
Q 3938 1781 3938 1306 
Q 3938 681 3513 340 
Q 3088 0 2303 0 
L 628 0 
L 628 4666 
z
" transform="scale(0.015625)"/>
      <path id="DejaVuSans-65" d="M 3597 1894 
L 3597 1613 
L 953 1613 
Q 991 1019 1311 708 
Q 1631 397 2203 397 
Q 2534 397 2845 478 
Q 3156 559 3463 722 
L 3463 178 
Q 3153 47 2828 -22 
Q 2503 -91 2169 -91 
Q 1331 -91 842 396 
Q 353 884 353 1716 
Q 353 2575 817 3079 
Q 1281 3584 2069 3584 
Q 2775 3584 3186 3129 
Q 3597 2675 3597 1894 
z
M 3022 2063 
Q 3016 2534 2758 2815 
Q 2500 3097 2075 3097 
Q 1594 3097 1305 2825 
Q 1016 2553 972 2059 
L 3022 2063 
z
" transform="scale(0.015625)"/>
      <path id="DejaVuSans-64" d="M 2906 2969 
L 2906 4863 
L 3481 4863 
L 3481 0 
L 2906 0 
L 2906 525 
Q 2725 213 2448 61 
Q 2172 -91 1784 -91 
Q 1150 -91 751 415 
Q 353 922 353 1747 
Q 353 2572 751 3078 
Q 1150 3584 1784 3584 
Q 2172 3584 2448 3432 
Q 2725 3281 2906 2969 
z
M 947 1747 
Q 947 1113 1208 752 
Q 1469 391 1925 391 
Q 2381 391 2643 752 
Q 2906 1113 2906 1747 
Q 2906 2381 2643 2742 
Q 2381 3103 1925 3103 
Q 1469 3103 1208 2742 
Q 947 2381 947 1747 
z
" transform="scale(0.015625)"/>
      <path id="DejaVuSans-76" d="M 191 3500 
L 800 3500 
L 1894 563 
L 2988 3500 
L 3597 3500 
L 2284 0 
L 1503 0 
L 191 3500 
z
" transform="scale(0.015625)"/>
      <path id="DejaVuSans-28" d="M 1984 4856 
Q 1566 4138 1362 3434 
Q 1159 2731 1159 2009 
Q 1159 1288 1364 580 
Q 1569 -128 1984 -844 
L 1484 -844 
Q 1016 -109 783 600 
Q 550 1309 550 2009 
Q 550 2706 781 3412 
Q 1013 4119 1484 4856 
L 1984 4856 
z
" transform="scale(0.015625)"/>
      <path id="DejaVuSans-4c" d="M 628 4666 
L 1259 4666 
L 1259 531 
L 3531 531 
L 3531 0 
L 628 0 
L 628 4666 
z
" transform="scale(0.015625)"/>
      <path id="DejaVuSans-44" d="M 1259 4147 
L 1259 519 
L 2022 519 
Q 2988 519 3436 956 
Q 3884 1394 3884 2338 
Q 3884 3275 3436 3711 
Q 2988 4147 2022 4147 
L 1259 4147 
z
M 628 4666 
L 1925 4666 
Q 3281 4666 3915 4102 
Q 4550 3538 4550 2338 
Q 4550 1131 3912 565 
Q 3275 0 1925 0 
L 628 0 
L 628 4666 
z
" transform="scale(0.015625)"/>
      <path id="DejaVuSans-2c" d="M 750 794 
L 1409 794 
L 1409 256 
L 897 -744 
L 494 -744 
L 750 256 
L 750 794 
z
" transform="scale(0.015625)"/>
      <path id="DejaVuSans-46" d="M 628 4666 
L 3309 4666 
L 3309 4134 
L 1259 4134 
L 1259 2759 
L 3109 2759 
L 3109 2228 
L 1259 2228 
L 1259 0 
L 628 0 
L 628 4666 
z
" transform="scale(0.015625)"/>
      <path id="DejaVuSans-68" d="M 3513 2113 
L 3513 0 
L 2938 0 
L 2938 2094 
Q 2938 2591 2744 2837 
Q 2550 3084 2163 3084 
Q 1697 3084 1428 2787 
Q 1159 2491 1159 1978 
L 1159 0 
L 581 0 
L 581 4863 
L 1159 4863 
L 1159 2956 
Q 1366 3272 1645 3428 
Q 1925 3584 2291 3584 
Q 2894 3584 3203 3211 
Q 3513 2838 3513 2113 
z
" transform="scale(0.015625)"/>
      <path id="DejaVuSans-29" d="M 513 4856 
L 1013 4856 
Q 1481 4119 1714 3412 
Q 1947 2706 1947 2009 
Q 1947 1309 1714 600 
Q 1481 -109 1013 -844 
L 513 -844 
Q 928 -128 1133 580 
Q 1338 1288 1338 2009 
Q 1338 2731 1133 3434 
Q 928 4138 513 4856 
z
" transform="scale(0.015625)"/>
     </defs>
     <use xlink:href="#DejaVuSans-50"/>
     <use xlink:href="#DejaVuSans-37" x="60.302734"/>
     <use xlink:href="#DejaVuSans-20" x="123.925781"/>
     <use xlink:href="#DejaVuSans-53" x="155.712891"/>
     <use xlink:href="#DejaVuSans-74" x="219.189453"/>
     <use xlink:href="#DejaVuSans-69" x="258.398438"/>
     <use xlink:href="#DejaVuSans-6d" x="286.181641"/>
     <use xlink:href="#DejaVuSans-75" x="383.59375"/>
     <use xlink:href="#DejaVuSans-6c" x="446.972656"/>
     <use xlink:href="#DejaVuSans-75" x="474.755859"/>
     <use xlink:href="#DejaVuSans-73" x="538.134766"/>
     <use xlink:href="#DejaVuSans-2f" x="590.234375"/>
     <use xlink:href="#DejaVuSans-42" x="623.925781"/>
     <use xlink:href="#DejaVuSans-61" x="692.529297"/>
     <use xlink:href="#DejaVuSans-73" x="753.808594"/>
     <use xlink:href="#DejaVuSans-65" x="805.908203"/>
     <use xlink:href="#DejaVuSans-6c" x="867.431641"/>
     <use xlink:href="#DejaVuSans-69" x="895.214844"/>
     <use xlink:href="#DejaVuSans-6e" x="922.998047"/>
     <use xlink:href="#DejaVuSans-65" x="986.376953"/>
     <use xlink:href="#DejaVuSans-20" x="1047.900391"/>
     <use xlink:href="#DejaVuSans-50" x="1079.6875"/>
     <use xlink:href="#DejaVuSans-72" x="1138.240234"/>
     <use xlink:href="#DejaVuSans-65" x="1177.103516"/>
     <use xlink:href="#DejaVuSans-64" x="1238.626953"/>
     <use xlink:href="#DejaVuSans-69" x="1302.103516"/>
     <use xlink:href="#DejaVuSans-63" x="1329.886719"/>
     <use xlink:href="#DejaVuSans-74" x="1384.867188"/>
     <use xlink:href="#DejaVuSans-69" x="1424.076172"/>
     <use xlink:href="#DejaVuSans-6f" x="1451.859375"/>
     <use xlink:href="#DejaVuSans-6e" x="1513.041016"/>
     <use xlink:href="#DejaVuSans-20" x="1576.419922"/>
     <use xlink:href="#DejaVuSans-41" x="1608.207031"/>
     <use xlink:href="#DejaVuSans-63" x="1674.865234"/>
     <use xlink:href="#DejaVuSans-63" x="1729.845703"/>
     <use xlink:href="#DejaVuSans-75" x="1784.826172"/>
     <use xlink:href="#DejaVuSans-72" x="1848.205078"/>
     <use xlink:href="#DejaVuSans-61" x="1889.318359"/>
     <use xlink:href="#DejaVuSans-63" x="1950.597656"/>
     <use xlink:href="#DejaVuSans-79" x="2005.578125"/>
     <use xlink:href="#DejaVuSans-20" x="2064.757812"/>
     <use xlink:href="#DejaVuSans-76" x="2096.544922"/>
     <use xlink:href="#DejaVuSans-73" x="2155.724609"/>
     <use xlink:href="#DejaVuSans-20" x="2207.824219"/>
     <use xlink:href="#DejaVuSans-43" x="2239.611328"/>
     <use xlink:href="#DejaVuSans-6f" x="2309.435547"/>
     <use xlink:href="#DejaVuSans-6e" x="2370.617188"/>
     <use xlink:href="#DejaVuSans-74" x="2433.996094"/>
     <use xlink:href="#DejaVuSans-72" x="2473.205078"/>
     <use xlink:href="#DejaVuSans-61" x="2514.318359"/>
     <use xlink:href="#DejaVuSans-73" x="2575.597656"/>
     <use xlink:href="#DejaVuSans-74" x="2627.697266"/>
     <use xlink:href="#DejaVuSans-20" x="2666.90625"/>
     <use xlink:href="#DejaVuSans-28" x="2698.693359"/>
     <use xlink:href="#DejaVuSans-4c" x="2737.707031"/>
     <use xlink:href="#DejaVuSans-44" x="2793.419922"/>
     <use xlink:href="#DejaVuSans-41" x="2868.671875"/>
     <use xlink:href="#DejaVuSans-2c" x="2937.080078"/>
     <use xlink:href="#DejaVuSans-20" x="2968.867188"/>
     <use xlink:href="#DejaVuSans-46" x="3000.654297"/>
     <use xlink:href="#DejaVuSans-69" x="3050.923828"/>
     <use xlink:href="#DejaVuSans-6c" x="3078.707031"/>
     <use xlink:href="#DejaVuSans-74" x="3106.490234"/>
     <use xlink:href="#DejaVuSans-65" x="3145.699219"/>
     <use xlink:href="#DejaVuSans-72" x="3207.222656"/>
     <use xlink:href="#DejaVuSans-65" x="3246.085938"/>
     <use xlink:href="#DejaVuSans-64" x="3307.609375"/>
     <use xlink:href="#DejaVuSans-20" x="3371.085938"/>
     <use xlink:href="#DejaVuSans-63" x="3402.873047"/>
     <use xlink:href="#DejaVuSans-68" x="3457.853516"/>
     <use xlink:href="#DejaVuSans-61" x="3521.232422"/>
     <use xlink:href="#DejaVuSans-6e" x="3582.511719"/>
     <use xlink:href="#DejaVuSans-6e" x="3645.890625"/>
     <use xlink:href="#DejaVuSans-65" x="3709.269531"/>
     <use xlink:href="#DejaVuSans-6c" x="3770.792969"/>
     <use xlink:href="#DejaVuSans-73" x="3798.576172"/>
     <use xlink:href="#DejaVuSans-29" x="3850.675781"/>
    </g>
   </g>
   <g id="legend_1">
    <g id="patch_7">
     <path d="M 269.76 378.48 
L 510 378.48 
Q 512.4 378.48 512.4 376.08 
L 512.4 266.11875 
Q 512.4 263.71875 510 263.71875 
L 269.76 263.71875 
Q 267.36 263.71875 267.36 266.11875 
L 267.36 376.08 
Q 267.36 378.48 269.76 378.48 
z
" style="fill: #ffffff; opacity: 0.8; stroke: #cccccc; stroke-linejoin: miter"/>
    </g>
    <g id="PathCollection_4">
     <g>
      <use xlink:href="#mb21e438db3" x="284.16" y="274.486875" style="fill: #1f77b4; stroke: #1f77b4"/>
     </g>
    </g>
    <g id="text_16">
     <!-- Frequency 1 Hz -->
     <g transform="translate(305.76 277.636875) scale(0.12 -0.12)">
      <defs>
       <path id="DejaVuSans-71" d="M 947 1747 
Q 947 1113 1208 752 
Q 1469 391 1925 391 
Q 2381 391 2643 752 
Q 2906 1113 2906 1747 
Q 2906 2381 2643 2742 
Q 2381 3103 1925 3103 
Q 1469 3103 1208 2742 
Q 947 2381 947 1747 
z
M 2906 525 
Q 2725 213 2448 61 
Q 2172 -91 1784 -91 
Q 1150 -91 751 415 
Q 353 922 353 1747 
Q 353 2572 751 3078 
Q 1150 3584 1784 3584 
Q 2172 3584 2448 3432 
Q 2725 3281 2906 2969 
L 2906 3500 
L 3481 3500 
L 3481 -1331 
L 2906 -1331 
L 2906 525 
z
" transform="scale(0.015625)"/>
       <path id="DejaVuSans-48" d="M 628 4666 
L 1259 4666 
L 1259 2753 
L 3553 2753 
L 3553 4666 
L 4184 4666 
L 4184 0 
L 3553 0 
L 3553 2222 
L 1259 2222 
L 1259 0 
L 628 0 
L 628 4666 
z
" transform="scale(0.015625)"/>
       <path id="DejaVuSans-7a" d="M 353 3500 
L 3084 3500 
L 3084 2975 
L 922 459 
L 3084 459 
L 3084 0 
L 275 0 
L 275 525 
L 2438 3041 
L 353 3041 
L 353 3500 
z
" transform="scale(0.015625)"/>
      </defs>
      <use xlink:href="#DejaVuSans-46"/>
      <use xlink:href="#DejaVuSans-72" x="50.269531"/>
      <use xlink:href="#DejaVuSans-65" x="89.132812"/>
      <use xlink:href="#DejaVuSans-71" x="150.65625"/>
      <use xlink:href="#DejaVuSans-75" x="214.132812"/>
      <use xlink:href="#DejaVuSans-65" x="277.511719"/>
      <use xlink:href="#DejaVuSans-6e" x="339.035156"/>
      <use xlink:href="#DejaVuSans-63" x="402.414062"/>
      <use xlink:href="#DejaVuSans-79" x="457.394531"/>
      <use xlink:href="#DejaVuSans-20" x="516.574219"/>
      <use xlink:href="#DejaVuSans-31" x="548.361328"/>
      <use xlink:href="#DejaVuSans-20" x="611.984375"/>
      <use xlink:href="#DejaVuSans-48" x="643.771484"/>
      <use xlink:href="#DejaVuSans-7a" x="718.966797"/>
     </g>
    </g>
    <g id="line2d_29">
     <path d="M 272.16 292.8525 
L 284.16 292.8525 
L 296.16 292.8525 
" style="fill: none; stroke: #1f77b4; stroke-width: 1.5; stroke-linecap: square"/>
    </g>
    <g id="text_17">
     <!-- Sigmoid fit (Freq 1 Hz, $R^2$=0.855) -->
     <g transform="translate(305.76 297.0525) scale(0.12 -0.12)">
      <defs>
       <path id="DejaVuSans-67" d="M 2906 1791 
Q 2906 2416 2648 2759 
Q 2391 3103 1925 3103 
Q 1463 3103 1205 2759 
Q 947 2416 947 1791 
Q 947 1169 1205 825 
Q 1463 481 1925 481 
Q 2391 481 2648 825 
Q 2906 1169 2906 1791 
z
M 3481 434 
Q 3481 -459 3084 -895 
Q 2688 -1331 1869 -1331 
Q 1566 -1331 1297 -1286 
Q 1028 -1241 775 -1147 
L 775 -588 
Q 1028 -725 1275 -790 
Q 1522 -856 1778 -856 
Q 2344 -856 2625 -561 
Q 2906 -266 2906 331 
L 2906 616 
Q 2728 306 2450 153 
Q 2172 0 1784 0 
Q 1141 0 747 490 
Q 353 981 353 1791 
Q 353 2603 747 3093 
Q 1141 3584 1784 3584 
Q 2172 3584 2450 3431 
Q 2728 3278 2906 2969 
L 2906 3500 
L 3481 3500 
L 3481 434 
z
" transform="scale(0.015625)"/>
       <path id="DejaVuSans-66" d="M 2375 4863 
L 2375 4384 
L 1825 4384 
Q 1516 4384 1395 4259 
Q 1275 4134 1275 3809 
L 1275 3500 
L 2222 3500 
L 2222 3053 
L 1275 3053 
L 1275 0 
L 697 0 
L 697 3053 
L 147 3053 
L 147 3500 
L 697 3500 
L 697 3744 
Q 697 4328 969 4595 
Q 1241 4863 1831 4863 
L 2375 4863 
z
" transform="scale(0.015625)"/>
       <path id="DejaVuSans-Oblique-52" d="M 1613 4147 
L 1294 2491 
L 2106 2491 
Q 2584 2491 2879 2755 
Q 3175 3019 3175 3444 
Q 3175 3784 2976 3965 
Q 2778 4147 2406 4147 
L 1613 4147 
z
M 2772 2241 
Q 2972 2194 3105 2009 
Q 3238 1825 3413 1275 
L 3809 0 
L 3144 0 
L 2778 1197 
Q 2638 1659 2453 1815 
Q 2269 1972 1888 1972 
L 1191 1972 
L 806 0 
L 172 0 
L 1081 4666 
L 2503 4666 
Q 3150 4666 3495 4373 
Q 3841 4081 3841 3531 
Q 3841 3044 3547 2687 
Q 3253 2331 2772 2241 
z
" transform="scale(0.015625)"/>
       <path id="DejaVuSans-3d" d="M 678 2906 
L 4684 2906 
L 4684 2381 
L 678 2381 
L 678 2906 
z
M 678 1631 
L 4684 1631 
L 4684 1100 
L 678 1100 
L 678 1631 
z
" transform="scale(0.015625)"/>
      </defs>
      <use xlink:href="#DejaVuSans-53" transform="translate(0 0.765625)"/>
      <use xlink:href="#DejaVuSans-69" transform="translate(63.476562 0.765625)"/>
      <use xlink:href="#DejaVuSans-67" transform="translate(91.259766 0.765625)"/>
      <use xlink:href="#DejaVuSans-6d" transform="translate(154.736328 0.765625)"/>
      <use xlink:href="#DejaVuSans-6f" transform="translate(252.148438 0.765625)"/>
      <use xlink:href="#DejaVuSans-69" transform="translate(313.330078 0.765625)"/>
      <use xlink:href="#DejaVuSans-64" transform="translate(341.113281 0.765625)"/>
      <use xlink:href="#DejaVuSans-20" transform="translate(404.589844 0.765625)"/>
      <use xlink:href="#DejaVuSans-66" transform="translate(436.376953 0.765625)"/>
      <use xlink:href="#DejaVuSans-69" transform="translate(471.582031 0.765625)"/>
      <use xlink:href="#DejaVuSans-74" transform="translate(499.365234 0.765625)"/>
      <use xlink:href="#DejaVuSans-20" transform="translate(538.574219 0.765625)"/>
      <use xlink:href="#DejaVuSans-28" transform="translate(570.361328 0.765625)"/>
      <use xlink:href="#DejaVuSans-46" transform="translate(609.375 0.765625)"/>
      <use xlink:href="#DejaVuSans-72" transform="translate(666.894531 0.765625)"/>
      <use xlink:href="#DejaVuSans-65" transform="translate(708.007812 0.765625)"/>
      <use xlink:href="#DejaVuSans-71" transform="translate(769.53125 0.765625)"/>
      <use xlink:href="#DejaVuSans-20" transform="translate(833.007812 0.765625)"/>
      <use xlink:href="#DejaVuSans-31" transform="translate(864.794922 0.765625)"/>
      <use xlink:href="#DejaVuSans-20" transform="translate(928.417969 0.765625)"/>
      <use xlink:href="#DejaVuSans-48" transform="translate(960.205078 0.765625)"/>
      <use xlink:href="#DejaVuSans-7a" transform="translate(1035.400391 0.765625)"/>
      <use xlink:href="#DejaVuSans-2c" transform="translate(1087.890625 0.765625)"/>
      <use xlink:href="#DejaVuSans-20" transform="translate(1119.677734 0.765625)"/>
      <use xlink:href="#DejaVuSans-Oblique-52" transform="translate(1151.464844 0.765625)"/>
      <use xlink:href="#DejaVuSans-32" transform="translate(1227.964036 39.046875) scale(0.7)"/>
      <use xlink:href="#DejaVuSans-3d" transform="translate(1275.234544 0.765625)"/>
      <use xlink:href="#DejaVuSans-30" transform="translate(1359.023607 0.765625)"/>
      <use xlink:href="#DejaVuSans-2e" transform="translate(1422.646654 0.765625)"/>
      <use xlink:href="#DejaVuSans-38" transform="translate(1451.808763 0.765625)"/>
      <use xlink:href="#DejaVuSans-35" transform="translate(1515.43181 0.765625)"/>
      <use xlink:href="#DejaVuSans-35" transform="translate(1579.054857 0.765625)"/>
      <use xlink:href="#DejaVuSans-29" transform="translate(1642.677904 0.765625)"/>
     </g>
    </g>
    <g id="PathCollection_5">
     <g>
      <use xlink:href="#m3541e14250" x="284.16" y="311.540625" style="fill: #ff7f0e; stroke: #ff7f0e"/>
     </g>
    </g>
    <g id="text_18">
     <!-- Frequency 2 Hz -->
     <g transform="translate(305.76 314.690625) scale(0.12 -0.12)">
      <use xlink:href="#DejaVuSans-46"/>
      <use xlink:href="#DejaVuSans-72" x="50.269531"/>
      <use xlink:href="#DejaVuSans-65" x="89.132812"/>
      <use xlink:href="#DejaVuSans-71" x="150.65625"/>
      <use xlink:href="#DejaVuSans-75" x="214.132812"/>
      <use xlink:href="#DejaVuSans-65" x="277.511719"/>
      <use xlink:href="#DejaVuSans-6e" x="339.035156"/>
      <use xlink:href="#DejaVuSans-63" x="402.414062"/>
      <use xlink:href="#DejaVuSans-79" x="457.394531"/>
      <use xlink:href="#DejaVuSans-20" x="516.574219"/>
      <use xlink:href="#DejaVuSans-32" x="548.361328"/>
      <use xlink:href="#DejaVuSans-20" x="611.984375"/>
      <use xlink:href="#DejaVuSans-48" x="643.771484"/>
      <use xlink:href="#DejaVuSans-7a" x="718.966797"/>
     </g>
    </g>
    <g id="line2d_30">
     <path d="M 272.16 329.90625 
L 284.16 329.90625 
L 296.16 329.90625 
" style="fill: none; stroke: #ff7f0e; stroke-width: 1.5; stroke-linecap: square"/>
    </g>
    <g id="text_19">
     <!-- Sigmoid fit (Freq 2 Hz, $R^2$=0.799) -->
     <g transform="translate(305.76 334.10625) scale(0.12 -0.12)">
      <use xlink:href="#DejaVuSans-53" transform="translate(0 0.765625)"/>
      <use xlink:href="#DejaVuSans-69" transform="translate(63.476562 0.765625)"/>
      <use xlink:href="#DejaVuSans-67" transform="translate(91.259766 0.765625)"/>
      <use xlink:href="#DejaVuSans-6d" transform="translate(154.736328 0.765625)"/>
      <use xlink:href="#DejaVuSans-6f" transform="translate(252.148438 0.765625)"/>
      <use xlink:href="#DejaVuSans-69" transform="translate(313.330078 0.765625)"/>
      <use xlink:href="#DejaVuSans-64" transform="translate(341.113281 0.765625)"/>
      <use xlink:href="#DejaVuSans-20" transform="translate(404.589844 0.765625)"/>
      <use xlink:href="#DejaVuSans-66" transform="translate(436.376953 0.765625)"/>
      <use xlink:href="#DejaVuSans-69" transform="translate(471.582031 0.765625)"/>
      <use xlink:href="#DejaVuSans-74" transform="translate(499.365234 0.765625)"/>
      <use xlink:href="#DejaVuSans-20" transform="translate(538.574219 0.765625)"/>
      <use xlink:href="#DejaVuSans-28" transform="translate(570.361328 0.765625)"/>
      <use xlink:href="#DejaVuSans-46" transform="translate(609.375 0.765625)"/>
      <use xlink:href="#DejaVuSans-72" transform="translate(666.894531 0.765625)"/>
      <use xlink:href="#DejaVuSans-65" transform="translate(708.007812 0.765625)"/>
      <use xlink:href="#DejaVuSans-71" transform="translate(769.53125 0.765625)"/>
      <use xlink:href="#DejaVuSans-20" transform="translate(833.007812 0.765625)"/>
      <use xlink:href="#DejaVuSans-32" transform="translate(864.794922 0.765625)"/>
      <use xlink:href="#DejaVuSans-20" transform="translate(928.417969 0.765625)"/>
      <use xlink:href="#DejaVuSans-48" transform="translate(960.205078 0.765625)"/>
      <use xlink:href="#DejaVuSans-7a" transform="translate(1035.400391 0.765625)"/>
      <use xlink:href="#DejaVuSans-2c" transform="translate(1087.890625 0.765625)"/>
      <use xlink:href="#DejaVuSans-20" transform="translate(1119.677734 0.765625)"/>
      <use xlink:href="#DejaVuSans-Oblique-52" transform="translate(1151.464844 0.765625)"/>
      <use xlink:href="#DejaVuSans-32" transform="translate(1227.964036 39.046875) scale(0.7)"/>
      <use xlink:href="#DejaVuSans-3d" transform="translate(1275.234544 0.765625)"/>
      <use xlink:href="#DejaVuSans-30" transform="translate(1359.023607 0.765625)"/>
      <use xlink:href="#DejaVuSans-2e" transform="translate(1422.646654 0.765625)"/>
      <use xlink:href="#DejaVuSans-37" transform="translate(1446.683763 0.765625)"/>
      <use xlink:href="#DejaVuSans-39" transform="translate(1510.30681 0.765625)"/>
      <use xlink:href="#DejaVuSans-39" transform="translate(1573.929857 0.765625)"/>
      <use xlink:href="#DejaVuSans-29" transform="translate(1637.552904 0.765625)"/>
     </g>
    </g>
    <g id="PathCollection_6">
     <g>
      <use xlink:href="#m5ce67edd17" x="284.16" y="348.594375" style="fill: #ff0000; stroke: #ff0000"/>
     </g>
    </g>
    <g id="text_20">
     <!-- Mean Accuracy -->
     <g transform="translate(305.76 351.744375) scale(0.12 -0.12)">
      <defs>
       <path id="DejaVuSans-4d" d="M 628 4666 
L 1569 4666 
L 2759 1491 
L 3956 4666 
L 4897 4666 
L 4897 0 
L 4281 0 
L 4281 4097 
L 3078 897 
L 2444 897 
L 1241 4097 
L 1241 0 
L 628 0 
L 628 4666 
z
" transform="scale(0.015625)"/>
      </defs>
      <use xlink:href="#DejaVuSans-4d"/>
      <use xlink:href="#DejaVuSans-65" x="86.279297"/>
      <use xlink:href="#DejaVuSans-61" x="147.802734"/>
      <use xlink:href="#DejaVuSans-6e" x="209.082031"/>
      <use xlink:href="#DejaVuSans-20" x="272.460938"/>
      <use xlink:href="#DejaVuSans-41" x="304.248047"/>
      <use xlink:href="#DejaVuSans-63" x="370.90625"/>
      <use xlink:href="#DejaVuSans-63" x="425.886719"/>
      <use xlink:href="#DejaVuSans-75" x="480.867188"/>
      <use xlink:href="#DejaVuSans-72" x="544.246094"/>
      <use xlink:href="#DejaVuSans-61" x="585.359375"/>
      <use xlink:href="#DejaVuSans-63" x="646.638672"/>
      <use xlink:href="#DejaVuSans-79" x="701.619141"/>
     </g>
    </g>
    <g id="line2d_31">
     <path d="M 272.16 366.96 
L 284.16 366.96 
L 296.16 366.96 
" style="fill: none; stroke: #ff0000; stroke-width: 1.5; stroke-linecap: square"/>
    </g>
    <g id="text_21">
     <!-- Sigmoid fit (Mean, $R^2$=0.896) -->
     <g transform="translate(305.76 371.16) scale(0.12 -0.12)">
      <use xlink:href="#DejaVuSans-53" transform="translate(0 0.765625)"/>
      <use xlink:href="#DejaVuSans-69" transform="translate(63.476562 0.765625)"/>
      <use xlink:href="#DejaVuSans-67" transform="translate(91.259766 0.765625)"/>
      <use xlink:href="#DejaVuSans-6d" transform="translate(154.736328 0.765625)"/>
      <use xlink:href="#DejaVuSans-6f" transform="translate(252.148438 0.765625)"/>
      <use xlink:href="#DejaVuSans-69" transform="translate(313.330078 0.765625)"/>
      <use xlink:href="#DejaVuSans-64" transform="translate(341.113281 0.765625)"/>
      <use xlink:href="#DejaVuSans-20" transform="translate(404.589844 0.765625)"/>
      <use xlink:href="#DejaVuSans-66" transform="translate(436.376953 0.765625)"/>
      <use xlink:href="#DejaVuSans-69" transform="translate(471.582031 0.765625)"/>
      <use xlink:href="#DejaVuSans-74" transform="translate(499.365234 0.765625)"/>
      <use xlink:href="#DejaVuSans-20" transform="translate(538.574219 0.765625)"/>
      <use xlink:href="#DejaVuSans-28" transform="translate(570.361328 0.765625)"/>
      <use xlink:href="#DejaVuSans-4d" transform="translate(609.375 0.765625)"/>
      <use xlink:href="#DejaVuSans-65" transform="translate(695.654297 0.765625)"/>
      <use xlink:href="#DejaVuSans-61" transform="translate(757.177734 0.765625)"/>
      <use xlink:href="#DejaVuSans-6e" transform="translate(818.457031 0.765625)"/>
      <use xlink:href="#DejaVuSans-2c" transform="translate(881.835938 0.765625)"/>
      <use xlink:href="#DejaVuSans-20" transform="translate(913.623047 0.765625)"/>
      <use xlink:href="#DejaVuSans-Oblique-52" transform="translate(945.410156 0.765625)"/>
      <use xlink:href="#DejaVuSans-32" transform="translate(1021.909349 39.046875) scale(0.7)"/>
      <use xlink:href="#DejaVuSans-3d" transform="translate(1069.179857 0.765625)"/>
      <use xlink:href="#DejaVuSans-30" transform="translate(1152.968919 0.765625)"/>
      <use xlink:href="#DejaVuSans-2e" transform="translate(1216.591966 0.765625)"/>
      <use xlink:href="#DejaVuSans-38" transform="translate(1245.754076 0.765625)"/>
      <use xlink:href="#DejaVuSans-39" transform="translate(1309.377122 0.765625)"/>
      <use xlink:href="#DejaVuSans-36" transform="translate(1373.000169 0.765625)"/>
      <use xlink:href="#DejaVuSans-29" transform="translate(1436.623216 0.765625)"/>
     </g>
    </g>
   </g>
  </g>
 </g>
 <defs>
  <clipPath id="p4465f0de7d">
   <rect x="72" y="51.84" width="446.4" height="332.64"/>
  </clipPath>
 </defs>
</svg>
